<svg xmlns="http://www.w3.org/2000/svg" aria-hidden="true" role="img" width="512" height="512" preserveAspectRatio="xMidYMid meet" viewBox="0 0 16 16"><path fill="#a95923" d="m2.68 7.676l6.49-6.504a4 4 0 0 1 5.66 5.653l-1.477 1.529l-5.006 5.006l-1.523 1.472a4 4 0 0 1-5.653-5.66l.001-.002l1.505-1.492l.001-.002Zm5.71-2.858a.5.5 0 1 0-.708.707a.5.5 0 0 0 .707-.707ZM6.974 6.939a.5.5 0 1 0-.707-.707a.5.5 0 0 0 .707.707ZM5.56 8.354a.5.5 0 1 0-.707-.708a.5.5 0 0 0 .707.708Zm2.828 2.828a.5.5 0 1 0-.707-.707a.5.5 0 0 0 .707.707Zm1.414-2.121a.5.5 0 1 0-.707.707a.5.5 0 0 0 .707-.707Zm1.414-.707a.5.5 0 1 0-.706-.708a.5.5 0 0 0 .707.708Zm-4.242.707a.5.5 0 1 0-.707.707a.5.5 0 0 0 .707-.707Zm1.414-.707a.5.5 0 1 0-.707-.708a.5.5 0 0 0 .707.708Zm1.414-2.122a.5.5 0 1 0-.707.707a.5.5 0 0 0 .707-.707ZM8.646 3.354l4 4l.708-.708l-4-4l-.708.708Zm-1.292 9.292l-4-4l-.708.708l4 4l.708-.708Z"/></svg>
